<?xml version="1.0" encoding="utf-8"?>
<!DOCTYPE svg PUBLIC "-//W3C//DTD SVG 1.1//EN" "http://www.w3.org/Graphics/SVG/1.1/DTD/svg11.dtd">
<svg version="1.1" xmlns="http://www.w3.org/2000/svg" xmlns:xlink="http://www.w3.org/1999/xlink" x="0px" y="0px" viewBox="0 0 1000 1000" enable-background="new 0 0 1000 1000" xml:space="preserve" fill="#d4d7d6">
<g transform="scale(0.84, 0.84) translate(80, 80)"><path d="M662.4,10c9.9,1.6,19.9,2.8,29.7,4.9c34.4,7.6,65.2,22.8,92.4,45.1c17.8,14.6,25.1,33.7,20,56.4c-4.6,20.3-17.6,34-37.7,39.9c-19,5.5-36.1,1.3-51.7-11.2c-19.7-15.8-41.7-26.8-67.9-24.4c-22.3,2-43.6,25.4-41.6,46.3c0.9,9.4,4.2,18.5,6.6,27.7c4.2,16.3,8.5,32.5,12.8,48.7c0.7,2.8,1.4,5,5.3,5.3C690,252,743.9,271.4,792,307.6c47.2,35.5,85.9,78.1,111.9,131.6c19,39.3,29.7,80.8,32.5,124.3c3.7,57.9-3.1,114.5-25.6,168c-52.4,124.2-144.5,204.3-273.9,241.2c-49.3,14-99.8,19.5-150.9,16.6c-106.2-6-198.3-46.2-275.8-118.8C133.6,798.9,86,710.9,69.4,607.6C46.8,467,81.4,341,173,231.8c50.3-60,113.1-103.3,186.3-131.2c25.2-9.6,52.8-0.7,66.7,21.4c14.1,22.5,10.8,51.4-8.8,69.4c-5.5,5.1-12.5,9.1-19.5,11.9C286.1,248.7,212.3,329,183,446c-28.4,113.5-3.3,217.5,69.2,309c45.5,57.4,104.2,95.9,175.3,114.9c46,12.2,92.4,13,139.2,5.8c48.3-7.5,93.4-23.3,133.8-51c55.7-38.1,95.3-88.9,115.1-153.6c17.1-55.8,17.7-112.2-3.4-167.5c-17-44.6-47.1-78.9-84.9-107.2c-20.2-15.1-41.8-26.9-66.5-32.7c-1.1-0.3-2.3-0.4-4.3-0.7c3.4,12.9,6.5,25.2,9.7,37.4c7.8,29.5,15.8,59,23.5,88.6c16.7,64.2,0.5,120.5-43.7,168.5c-40.9,44.4-93,63.6-152.8,57.9c-66.5-6.4-114-42.5-145-101c-16.2-30.6-23.2-63.6-24.5-98.1c-2.1-55,10.8-105.7,42.3-151.1c33.8-48.7,80.7-80,136-99.4c4.4-1.5,8.8-2.9,13.9-4.6c-3-11.3-6.1-22.3-8.8-33.5c-3.7-15.3-8.4-30.6-10.3-46.1c-5.5-46,8.6-86.1,40.4-119.6c26-27.4,57.6-44.8,95.5-50.1c4.2-0.6,8.3-1.2,12.5-1.8C651,10,656.7,10,662.4,10L662.4,10z M544.3,367.3c-32.8,10.4-61.1,26.3-82.3,52.8c-28.4,35.4-34.1,76.1-25,119.4c4.7,22.5,15.7,41.7,35,55.1c24.1,16.8,56.9,16.1,82.1-1.4c25.8-17.8,37.2-46.6,29.7-76.1c-8.2-32.3-17-64.5-25.5-96.8C553.6,402.9,549.1,385.5,544.3,367.3L544.3,367.3z"/></g>
</svg>